<svg xmlns="http://www.w3.org/2000/svg" width="32" height="32" viewBox="0 0 32 32">
  <path d="M28 28.556c-1.292 1.496-2.833 2.514-4.625 3.054-1.625.457-3.281.457-4.969 0-1.687-.457-3.114-1.246-4.281-2.368L3 18.337c-.667-.665-1-1.454-1-2.368 0-.914.333-1.703 1-2.368L14.125 2.696C15.292 1.574 16.719.785 18.406.328c1.688-.457 3.344-.436 4.969.062C25.167.89 26.708 1.886 28 3.381a8.084 8.084 0 0 1 1.875 4.05 9.536 9.536 0 0 1-.375 4.58 9.88 9.88 0 0 1-2.438 3.958 9.88 9.88 0 0 1 2.438 3.957c.5 1.516.625 3.043.375 4.58A8.084 8.084 0 0 1 28 28.556zM16.24 27.14c.79.749 1.758 1.279 2.903 1.59a6.11 6.11 0 0 0 3.403-.03c1.207-.333 2.248-1.02 3.122-2.059.999-1.205 1.436-2.63 1.311-4.272-.125-1.642-.79-3.046-1.998-4.21l-2.185-2.183 2.185-2.183c1.207-1.164 1.873-2.567 1.998-4.21.125-1.642-.312-3.066-1.311-4.272-.874-1.04-1.915-1.725-3.122-2.058a6.11 6.11 0 0 0-3.403-.031c-1.145.312-2.113.842-2.904 1.59L5.125 15.79c-.167.125-.167.25 0 .374L16.239 27.14z"/>
</svg>